<?xml version="1.0" encoding="iso-8859-1"?>
<!-- Generator: Adobe Illustrator 15.0.2, SVG Export Plug-In . SVG Version: 6.00 Build 0)  -->
<!DOCTYPE svg PUBLIC "-//W3C//DTD SVG 1.1//EN" "http://www.w3.org/Graphics/SVG/1.1/DTD/svg11.dtd">
<svg version="1.1" id="Ebene_1" xmlns="http://www.w3.org/2000/svg" xmlns:xlink="http://www.w3.org/1999/xlink" x="0px" y="0px"
	 width="595.28px" height="841.89px" viewBox="0 0 595.28 841.89" style="enable-background:new 0 0 595.28 841.89;"
	 xml:space="preserve">
<path style="fill:#F9F19A;stroke:#010202;stroke-width:6;" d="M446.265,371.013C460.713,350.738,469,327.207,469,302.099
	c0-76.13-76.025-137.846-169.814-137.846c-93.783,0-169.811,61.716-169.811,137.846c0,25.146,8.299,48.718,22.789,69.015
	L299.19,676.82L446.265,371.013z"/>
<g>
	<defs>
		<rect id="SVGID_1_" x="156" y="191.535" width="283.465" height="283.465"/>
	</defs>
	<clipPath id="SVGID_2_">
		<use xlink:href="#SVGID_1_"  style="overflow:visible;"/>
	</clipPath>
	<path style="clip-path:url(#SVGID_2_);" d="M227.134,389.872c0-39.139,31.729-70.866,70.866-70.866
		c39.139,0,70.866,31.728,70.866,70.866c0,39.138-31.728,70.866-70.866,70.866C258.863,460.738,227.134,429.01,227.134,389.872"/>
	
		<line style="clip-path:url(#SVGID_2_);fill:none;stroke:#000000;stroke-width:8;" x1="368.889" y1="247.539" x2="227.112" y2="247.539"/>
	
		<line style="clip-path:url(#SVGID_2_);fill:none;stroke:#000000;stroke-width:8;" x1="368.889" y1="247.539" x2="227.112" y2="247.539"/>
	
		<line style="clip-path:url(#SVGID_2_);fill:none;stroke:#000000;stroke-width:8;" x1="298.291" y1="319.671" x2="298.291" y2="205.002"/>
	
		<line style="clip-path:url(#SVGID_2_);fill:none;stroke:#000000;stroke-width:8;" x1="298.291" y1="319.671" x2="298.291" y2="205.002"/>
</g>
</svg>
